<?xml version="1.0" standalone="no"?>
<!DOCTYPE svg PUBLIC "-//W3C//DTD SVG 20010904//EN"
 "http://www.w3.org/TR/2001/REC-SVG-20010904/DTD/svg10.dtd">
<svg version="1.0" xmlns="http://www.w3.org/2000/svg"
 width="316.000000pt" height="316.000000pt" viewBox="0 0 316.000000 316.000000"
 preserveAspectRatio="xMidYMid meet">
<metadata>
Created by potrace 1.11, written by Peter Selinger 2001-2013
</metadata>
<g transform="translate(0.000000,316.000000) scale(0.100000,-0.100000)"
fill="#000000" stroke="none">
<path d="M1519 2494 c-23 -25 -24 -30 -27 -217 -4 -227 3 -262 54 -283 29 -12
39 -12 68 0 51 21 58 56 54 283 -3 187 -4 192 -27 217 -18 19 -35 26 -61 26
-26 0 -43 -7 -61 -26z"/>
<path d="M1050 2353 c-36 -13 -60 -47 -60 -82 0 -30 19 -63 110 -191 61 -85
118 -162 127 -172 25 -27 88 -24 118 7 47 46 37 75 -86 246 -60 85 -118 162
-127 171 -19 19 -60 30 -82 21z"/>
<path d="M2055 2351 c-28 -12 -42 -29 -160 -197 -115 -162 -125 -191 -82 -238
24 -28 48 -34 89 -23 39 10 268 331 268 375 0 57 -65 104 -115 83z"/>
<path d="M725 1908 c-11 -6 -26 -18 -32 -26 -20 -24 -16 -85 6 -109 21 -22
367 -143 409 -143 13 0 37 14 54 30 26 27 30 36 25 67 -4 20 -14 44 -24 54
-18 16 -374 139 -403 139 -8 0 -24 -6 -35 -12z"/>
<path d="M2203 1859 c-99 -32 -191 -67 -202 -77 -12 -9 -24 -34 -28 -54 -5
-32 -1 -41 25 -68 17 -16 40 -30 52 -30 38 0 391 121 411 141 22 22 25 85 6
110 -14 19 -51 39 -69 39 -7 -1 -95 -28 -195 -61z"/>
<path d="M902 1429 c-101 -34 -192 -69 -203 -80 -42 -42 -16 -129 44 -144 28
-7 385 107 416 133 12 9 24 34 28 54 5 32 1 41 -25 68 -17 16 -41 30 -54 30
-13 0 -106 -28 -206 -61z"/>
<path d="M2024 1480 c-29 -12 -54 -49 -54 -81 0 -57 29 -75 231 -140 199 -63
222 -66 259 -29 28 28 27 90 -2 117 -20 18 -377 144 -403 142 -6 0 -20 -4 -31
-9z"/>
<path d="M1242 1223 c-7 -3 -66 -80 -132 -173 -131 -183 -140 -206 -96 -256
26 -31 82 -38 110 -15 9 8 68 86 131 174 125 173 135 199 94 251 -16 20 -29
26 -57 25 -20 0 -43 -3 -50 -6z"/>
<path d="M1815 1205 c-47 -46 -37 -75 89 -251 63 -88 121 -166 130 -173 8 -7
31 -13 50 -14 49 -1 86 34 86 83 0 30 -18 62 -111 191 -61 84 -120 162 -131
172 -30 25 -84 22 -113 -8z"/>
<path d="M1543 1125 c-48 -21 -55 -59 -51 -282 3 -187 4 -192 27 -217 34 -36
88 -36 122 0 23 25 24 30 27 217 4 226 -3 262 -53 283 -40 16 -32 17 -72 -1z"/>
</g>
</svg>
