<?xml version="1.0" standalone="no"?>
<!DOCTYPE svg PUBLIC "-//W3C//DTD SVG 20010904//EN"
 "http://www.w3.org/TR/2001/REC-SVG-20010904/DTD/svg10.dtd">
<svg version="1.0" xmlns="http://www.w3.org/2000/svg"
 width="316.000000pt" height="316.000000pt" viewBox="0 0 316.000000 316.000000"
 preserveAspectRatio="xMidYMid meet">
<metadata>
Created by potrace 1.11, written by Peter Selinger 2001-2013
</metadata>
<g transform="translate(0.000000,316.000000) scale(0.100000,-0.100000)"
fill="#000000" stroke="none">
<path d="M1525 2495 c-25 -24 -25 -24 -25 -240 0 -216 0 -216 25 -240 15 -16
36 -25 55 -25 19 0 40 9 55 25 25 24 25 24 25 240 0 216 0 216 -25 240 -15 16
-36 25 -55 25 -19 0 -40 -9 -55 -25z"/>
<path d="M1021 2333 c-12 -10 -24 -34 -27 -53 -5 -33 3 -48 111 -200 65 -91
123 -168 129 -173 58 -39 136 3 136 73 0 19 -219 334 -248 358 -23 18 -76 15
-101 -5z"/>
<path d="M2032 2333 c-10 -10 -58 -72 -104 -138 -160 -225 -160 -225 -109
-276 38 -38 78 -38 113 -1 46 49 227 308 233 334 8 30 -16 82 -40 92 -30 11
-73 6 -93 -11z"/>
<path d="M701 1884 c-12 -15 -21 -40 -21 -56 0 -53 34 -72 238 -138 183 -58
193 -60 221 -46 50 26 59 96 18 134 -25 23 -358 132 -405 132 -21 0 -37 -8
-51 -26z"/>
<path d="M2195 1854 c-173 -57 -201 -71 -216 -112 -13 -34 12 -86 49 -101 27
-11 47 -7 218 49 203 66 234 85 234 141 0 41 -39 79 -82 79 -18 0 -109 -26
-203 -56z"/>
<path d="M910 1429 c-198 -65 -230 -84 -230 -139 0 -40 38 -81 75 -82 39 -1
374 109 399 131 47 42 37 113 -20 137 -18 8 -35 14 -36 14 -2 0 -86 -28 -188
-61z"/>
<path d="M2007 1468 c-29 -23 -39 -65 -23 -102 14 -33 20 -36 213 -100 163
-54 205 -65 225 -57 54 20 75 88 41 130 -21 24 -358 141 -408 141 -17 0 -39
-6 -48 -12z"/>
<path d="M1243 1215 c-30 -21 -240 -315 -248 -347 -8 -30 16 -82 40 -92 27
-10 70 -7 87 7 13 10 150 196 225 306 31 45 29 76 -6 112 -33 32 -65 37 -98
14z"/>
<path d="M1834 1218 c-23 -11 -44 -48 -44 -77 0 -20 209 -324 242 -353 11 -10
35 -18 53 -18 43 0 74 27 81 70 5 32 -4 48 -110 197 -64 89 -126 169 -138 177
-25 18 -53 19 -84 4z"/>
<path d="M1525 1105 c-25 -24 -25 -24 -25 -240 0 -216 0 -216 25 -240 32 -33
78 -33 110 0 25 24 25 24 25 240 0 216 0 216 -25 240 -15 16 -36 25 -55 25
-19 0 -40 -9 -55 -25z"/>
</g>
</svg>
